# xmcd
#
# Track frame offsets:
# 150
# 14133
# 27145
# 43718
# 57754
# 72211
# 85804
# 101355
# 128976
# 142912
# 160144
# 173420
# 183561
# 200303
# 220178
# 237772
# 253848
# 273754
# 296416
#
# Disc length: 4270 seconds
#
#
# Revision: 0
# Processed by: cddbd v1.5.2PL0 Copyright (c) Steve Scherf et al.
# Submitted via: FreeRIP 2.96 
#
DISCID=0510ac13
DTITLE=Ryan Adams - Ryan Adams Mix
DYEAR=1900
DGENRE=Rock
TTITLE0=To Be Young
TTITLE1=Firecracker
TTITLE2=Rescue Blues
TTITLE3=Answering Bell
TTITLE4=Hallelujah
TTITLE5=Chin Up
TTITLE6=Nuclear
TTITLE7=Tina Toledo
TTITLE8=Gimme A Sign
TTITLE9=New York
TTITLE10=Tennessee Sucks
TTITLE11=Dear Chicago
TTITLE12=Desire
TTITLE13=Cry On Demand
TTITLE14=Firecracker - Live
TTITLE15=Stars Go Blue
TTITLE16=Tomorrow
TTITLE17=La Cienga
TTITLE18=Come Pick Me Up
EXTD=
EXTT0=
EXTT1=
EXTT2=
EXTT3=
EXTT4=
EXTT5=
EXTT6=
EXTT7=
EXTT8=
EXTT9=
EXTT10=
EXTT11=
EXTT12=
EXTT13=
EXTT14=
EXTT15=
EXTT16=
EXTT17=
EXTT18=
PLAYORDER=
